HIERARCHY
ROOT Pelvis
{
	OFFSET 0.000000 0.941512 0.000000
	CHANNELS 6 Xposition Yposition Zposition Zrotation Yrotation Xrotation 
	JOINT Pelvis_L_Hip
	{
		OFFSET 0.000000 0.000000 0.000000
		CHANNELS 3 Zrotation Yrotation Xrotation
		JOINT L_Hip
		{
			OFFSET 0.062321 -0.080322 -0.016990
			CHANNELS 3 Zrotation Yrotation Xrotation
			JOINT L_Knee
			{
				OFFSET 0.093051 -0.381305 -0.029784
				CHANNELS 3 Zrotation Yrotation Xrotation
				JOINT L_Ankle
				{
					OFFSET -0.010371 -0.431000 -0.033614
					CHANNELS 3 Zrotation Yrotation Xrotation
					End Site #name: L_Foot
					{
						OFFSET 0.069299 -0.038670 0.119418
					}
				}
			}
		}
	}
	JOINT Pelvis_R_Hip
	{
		OFFSET 0.000000 0.000000 0.000000
		CHANNELS 3 Zrotation Yrotation Xrotation
		JOINT R_Hip
		{
			OFFSET -0.055334 -0.094904 -0.002373
			CHANNELS 3 Zrotation Yrotation Xrotation
			JOINT R_Knee
			{
				OFFSET -0.064207 -0.384370 -0.019592
				CHANNELS 3 Zrotation Yrotation Xrotation
				JOINT R_Ankle
				{
					OFFSET 0.025418 -0.419734 -0.065953
					CHANNELS 3 Zrotation Yrotation Xrotation
					End Site #name: R_Foot
					{
						OFFSET -0.057233 -0.039888 0.132134
					}
				}
			}
		}
	}
	JOINT Pelvis_Spine1
	{
		OFFSET 0.000000 0.000000 0.000000
		CHANNELS 3 Zrotation Yrotation Xrotation
		JOINT Spine1
		{
			OFFSET -0.005562 0.124093 -0.043360
			CHANNELS 3 Zrotation Yrotation Xrotation
			JOINT Spine2
			{
				OFFSET 0.012244 0.139499 0.029894
				CHANNELS 3 Zrotation Yrotation Xrotation
				JOINT Spine3
				{
					OFFSET -0.002556 0.056561 0.009225
					CHANNELS 3 Zrotation Yrotation Xrotation
					JOINT Spine3_Neck
					{
						OFFSET 0.000000 0.000000 0.000000
						CHANNELS 3 Zrotation Yrotation Xrotation
						JOINT Neck
						{
							OFFSET -0.005205 0.217920 -0.024551
							CHANNELS 3 Zrotation Yrotation Xrotation
							End Site #name: Head
							{
								OFFSET 0.002365 0.091850 0.046637
							}
						}
					}
					JOINT Spine3_L_Collar
					{
						OFFSET 0.000000 0.000000 0.000000
						CHANNELS 3 Zrotation Yrotation Xrotation
						JOINT L_Collar
						{
							OFFSET 0.072225 0.116603 -0.009480
							CHANNELS 3 Zrotation Yrotation Xrotation
							JOINT L_Shoulder
							{
								OFFSET 0.115937 -0.058643 -0.021018
								CHANNELS 3 Zrotation Yrotation Xrotation
								JOINT L_Elbow
								{
									OFFSET 0.021994 -0.254722 -0.024492
									CHANNELS 3 Zrotation Yrotation Xrotation
									End Site #name: L_Wrist
									{
										OFFSET 0.048810 -0.240214 0.103329
									}
								}
							}
						}
					}
					JOINT Spine3_R_Collar
					{
						OFFSET 0.000000 0.000000 0.000000
						CHANNELS 3 Zrotation Yrotation Xrotation
						JOINT R_Collar
						{
							OFFSET -0.073372 0.120704 -0.024611
							CHANNELS 3 Zrotation Yrotation Xrotation
							JOINT R_Shoulder
							{
								OFFSET -0.108089 -0.054969 -0.020504
								CHANNELS 3 Zrotation Yrotation Xrotation
								JOINT R_Elbow
								{
									OFFSET -0.033684 -0.260739 0.009889
									CHANNELS 3 Zrotation Yrotation Xrotation
									End Site #name: R_Wrist
									{
										OFFSET -0.067980 -0.232763 0.118463
									}
								}
							}
						}
					}
				}
			}
		}
	}
}
MOTION
Frames: 10
Frame Time: 0.041667
0.000000 0.965221 0.000000 -6.344927 -1.682577 3.910232 0.000000 0.000000 0.000000 1.304584 -2.347868 -9.852645 1.477217 -0.409242 8.068283 -1.226573 4.293493 4.832092 0.000000 0.000000 0.000000 5.506039 3.642721 -17.984111 1.027898 1.008070 20.759811 0.160099 -2.698074 2.340495 0.000000 0.000000 0.000000 4.315015 -1.861783 6.890540 -0.347525 -0.054424 -2.334991 2.182290 2.660463 1.677133 0.000000 0.000000 0.000000 -2.126564 1.057301 4.675405 0.000000 0.000000 0.000000 13.912367 -9.823671 -3.856623 -11.574271 -0.129044 -6.730223 -3.291717 0.133159 6.690801 0.000000 0.000000 0.000000 -20.294223 13.289072 -6.084489 15.165014 -1.042478 5.924992 3.176188 3.315093 -5.006626 
-0.005815 0.966524 0.002792 -7.028110 -1.543757 3.990004 0.000000 0.000000 0.000000 2.250019 -2.259555 -9.482527 1.854646 -0.447901 7.578798 -1.468397 4.214506 5.207870 0.000000 0.000000 0.000000 5.405626 3.797033 -18.717845 0.006015 1.265386 19.462098 0.954962 -0.570126 2.578857 0.000000 0.000000 0.000000 4.666772 -1.986949 7.022078 -0.151811 -0.077307 -2.228231 2.221079 2.327793 1.716095 0.000000 0.000000 0.000000 -2.011508 0.993524 5.187526 0.000000 0.000000 0.000000 14.201977 -10.276808 -4.163738 -11.536713 -0.119883 -6.700524 -2.599340 0.572481 7.540707 0.000000 0.000000 0.000000 -20.173285 12.816385 -5.687026 15.466144 -0.975129 5.655482 3.133506 3.375826 -5.254997 
-0.013477 0.966147 0.006656 -7.258297 -1.228761 4.079182 0.000000 0.000000 0.000000 3.114094 -2.248252 -9.438224 1.721748 -0.431894 7.653406 -1.577591 4.031442 5.265660 0.000000 0.000000 0.000000 3.711575 3.627190 -18.822904 -0.883001 1.332634 16.612241 1.736097 0.180819 3.796964 0.000000 0.000000 0.000000 4.751890 -1.999201 6.881413 0.044599 -0.098077 -2.058816 2.244871 2.129620 1.836368 0.000000 0.000000 0.000000 -1.968808 0.968035 5.350764 0.000000 0.000000 0.000000 14.266700 -10.651622 -4.417211 -11.444994 -0.182026 -7.027203 -1.923665 0.966947 8.276324 0.000000 0.000000 0.000000 -20.114866 12.282484 -5.271328 15.475477 -1.053593 5.936067 3.102444 3.473419 -5.590282 
-0.023347 0.964332 0.011781 -7.283537 -1.206005 4.021705 0.000000 0.000000 0.000000 3.944719 -2.176529 -9.092398 1.454543 -0.393874 7.686613 -1.561012 4.070896 5.261875 0.000000 0.000000 0.000000 1.139550 3.301452 -18.595354 -1.617372 1.354437 14.124854 3.761998 2.979955 6.146585 0.000000 0.000000 0.000000 4.930309 -2.042009 6.817914 0.015793 -0.089113 -1.950216 2.277438 2.245710 2.066867 0.000000 0.000000 0.000000 -2.132645 1.062320 5.023665 0.000000 0.000000 0.000000 14.165127 -10.585338 -4.367611 -11.432391 -0.306740 -7.706705 -1.509131 1.162259 8.525497 0.000000 0.000000 0.000000 -20.192381 12.041644 -5.091641 15.265787 -1.185372 6.421179 3.068330 3.439701 -5.553127 
-0.036809 0.962200 0.017875 -7.247521 -1.225304 4.065506 0.000000 0.000000 0.000000 4.961235 -2.163348 -9.020957 1.187959 -0.367193 8.077046 -1.650942 4.143692 5.473671 0.000000 0.000000 0.000000 -1.656001 2.967022 -18.371777 -2.193507 1.376975 12.474016 6.302411 4.811244 10.023601 0.000000 0.000000 0.000000 5.053857 -2.034856 6.510028 0.006821 -0.086757 -1.925243 2.391137 2.520826 2.439984 0.000000 0.000000 0.000000 -2.334823 1.176313 4.623689 0.000000 0.000000 0.000000 14.030464 -10.092754 -4.014336 -11.677928 -0.468688 -8.616918 -1.328420 1.186395 8.340961 0.000000 0.000000 0.000000 -20.211639 11.867752 -4.982352 14.861865 -1.310379 6.893129 2.957772 3.217292 -5.093127 
-0.054095 0.960131 0.025152 -7.199164 -1.184334 3.964462 0.000000 0.000000 0.000000 6.145271 -2.094555 -8.637966 1.023569 -0.350102 8.320446 -1.813458 4.037272 5.690142 0.000000 0.000000 0.000000 -4.284328 2.596081 -17.658105 -2.393930 1.321386 11.229724 7.735943 3.937678 13.555127 0.000000 0.000000 0.000000 5.217669 -2.024538 6.108638 0.044085 -0.084173 -1.742558 2.505545 2.804396 2.694383 0.000000 0.000000 0.000000 -2.506181 1.269604 4.436834 0.000000 0.000000 0.000000 13.900666 -9.590592 -3.652924 -11.930521 -0.556850 -9.121517 -1.649543 0.946944 7.727949 0.000000 0.000000 0.000000 -20.173352 11.801001 -4.968538 14.541342 -1.402940 7.254135 2.491354 2.632553 -4.152566 
-0.075662 0.957417 0.033184 -7.039918 -1.097026 3.813122 0.000000 0.000000 0.000000 7.284458 -2.016978 -8.160424 1.143832 -0.378274 8.610265 -1.944736 3.944167 5.856043 0.000000 0.000000 0.000000 -6.513453 2.222501 -16.315877 -2.496273 1.192040 9.451463 7.115979 0.448152 15.223242 0.000000 0.000000 0.000000 5.325161 -1.995595 5.699038 0.029257 -0.076990 -1.627565 2.650993 3.014386 2.802084 0.000000 0.000000 0.000000 -2.599246 1.317910 4.406900 0.000000 0.000000 0.000000 13.830280 -9.158044 -3.339736 -12.307075 -0.571896 -9.214763 -2.117194 0.663399 7.169571 0.000000 0.000000 0.000000 -20.115590 11.775730 -4.984135 14.336890 -1.506026 7.661947 1.961421 2.069351 -3.343146 
-0.101993 0.953057 0.041762 -6.567111 -0.957457 3.680660 0.000000 0.000000 0.000000 8.460427 -1.952841 -7.700690 1.231356 -0.403055 8.920523 -2.185015 3.814773 6.186791 0.000000 0.000000 0.000000 -8.433188 1.887164 -14.603709 -2.476784 1.004136 7.325218 6.134713 -4.525520 17.886554 0.000000 0.000000 0.000000 5.218687 -1.903667 5.268745 -0.129089 -0.060580 -1.778507 2.731249 3.148351 2.977237 0.000000 0.000000 0.000000 -2.621863 1.327450 4.410950 0.000000 0.000000 0.000000 13.938675 -8.857987 -3.100716 -12.478452 -0.497547 -8.853732 -2.798080 0.254879 6.432196 0.000000 0.000000 0.000000 -20.158167 11.675745 -4.931357 14.418179 -1.626426 8.092565 1.651907 1.820634 -3.101686 
-0.134291 0.947363 0.050410 -5.861791 -0.923210 3.485281 0.000000 0.000000 0.000000 9.895230 -1.901572 -7.256586 1.198974 -0.416599 9.480673 -2.635969 3.632464 6.854922 0.000000 0.000000 0.000000 -9.576768 1.696467 -13.404337 -1.863630 0.890297 7.627642 4.995115 -8.782799 20.027232 0.000000 0.000000 0.000000 4.904358 -1.769471 4.948624 -0.417727 -0.031176 -2.046124 2.708553 3.270331 3.108860 0.000000 0.000000 0.000000 -2.762213 1.404905 4.226407 0.000000 0.000000 0.000000 13.990588 -8.563361 -2.877331 -12.375603 -0.419950 -8.442977 -3.006768 0.105385 6.110638 0.000000 0.000000 0.000000 -20.097362 11.695599 -4.970123 14.605291 -1.744192 8.495851 1.712888 1.920293 -3.307817 
-0.173615 0.942538 0.058465 -5.355194 -0.860742 3.104965 0.000000 0.000000 0.000000 11.942443 -1.896458 -7.027645 1.443402 -0.506367 10.869349 -3.756416 2.768446 8.208692 0.000000 0.000000 0.000000 -8.678805 1.602682 -11.929405 -1.204682 0.722754 7.369538 4.317841 -7.813329 17.251794 0.000000 0.000000 0.000000 4.750444 -1.730452 5.004412 -0.874124 0.009169 -2.535066 2.621468 3.361510 3.532298 0.000000 0.000000 0.000000 -3.103736 1.596677 3.254159 0.000000 0.000000 0.000000 14.181714 -8.365000 -2.700115 -11.976671 -0.332873 -7.975443 -2.915470 0.037170 5.657302 0.000000 0.000000 0.000000 -20.160612 11.966362 -5.199845 15.078823 -1.790736 8.546383 2.160949 2.360959 -3.899426 
